PathFileType        4      (X/Y/Z)      C:\Users\pc\Desktop\IMUTRC\Sujet_06\Sujet_06_Tpose.trc         
DataRate	CameraRate	NumFrames	NumMarkers	Units	OrigDataRate	OrigDataStartFrame	OrigNumFrames
60.0	60.0	4	64	mm	60.0	48	127
Frame#	Time	pHipOrigin			pRightASI			pLeftASI			pRightCSI			pLeftCSI			pRightIschialTub			pLeftIschialTub			pSacrum			pL5SpinalProcess			pL3SpinalProcess			pT12SpinalProcess			pIJ			pT4SpinalProcess			pT8SpinalProcess			pPX			pC7SpinalProcess			pTopOfHead			pRightAuricularis			pLeftAuricularis			pBackOfHead			pRightAcromion			pLeftAcromion			pRightArmLatEpicondyle			pRightArmMedEpicondyle			pLeftArmLatEpicondyle			pLeftArmMedEpicondyle			pRightUlnarStyloid			pRightRadialStyloid			pRightOlecranon			pLeftUlnarStyloid			pLeftRadialStyloid			pLeftOlecranon			pRightTopOfHand			pRightPinky			pRightBallHand			pLeftTopOfHand			pLeftPinky			pLeftBallHand			pRightGreaterTrochanter			pRightKneeLatEpicondyle			pRightKneeMedEpicondyle			pRightPatella			pLeftGreaterTrochanter			pLeftKneeLatEpicondyle			pLeftKneeMedEpicondyle			pLeftPatella			pRightTibialTub			pRightLatMalleolus			pRightMedMalleolus			pLeftTibialTub			pLeftLatMalleolus			pLeftMedMalleolus			pRightHeelFoot			pRightFirstMetatarsal			pRightFifthMetatarsal			pRightPivotFoot			pRightHeelCenter			pRightToe			pLeftHeelFoot			pLeftFirstMetatarsal			pLeftFifthMetatarsal			pLeftPivotFoot			pLeftHeelCenter			pLeftToe			
		X1	Y1	Z1	X2	Y2	Z2	X3	Y3	Z3	X4	Y4	Z4	X5	Y5	Z5	X6	Y6	Z6	X7	Y7	Z7	X8	Y8	Z8	X9	Y9	Z9	X10	Y10	Z10	X11	Y11	Z11	X12	Y12	Z12	X13	Y13	Z13	X14	Y14	Z14	X15	Y15	Z15	X16	Y16	Z16	X17	Y17	Z17	X18	Y18	Z18	X19	Y19	Z19	X20	Y20	Z20	X21	Y21	Z21	X22	Y22	Z22	X23	Y23	Z23	X24	Y24	Z24	X25	Y25	Z25	X26	Y26	Z26	X27	Y27	Z27	X28	Y28	Z28	X29	Y29	Z29	X30	Y30	Z30	X31	Y31	Z31	X32	Y32	Z32	X33	Y33	Z33	X34	Y34	Z34	X35	Y35	Z35	X36	Y36	Z36	X37	Y37	Z37	X38	Y38	Z38	X39	Y39	Z39	X40	Y40	Z40	X41	Y41	Z41	X42	Y42	Z42	X43	Y43	Z43	X44	Y44	Z44	X45	Y45	Z45	X46	Y46	Z46	X47	Y47	Z47	X48	Y48	Z48	X49	Y49	Z49	X50	Y50	Z50	X51	Y51	Z51	X52	Y52	Z52	X53	Y53	Z53	X54	Y54	Z54	X55	Y55	Z55	X56	Y56	Z56	X57	Y57	Z57	X58	Y58	Z58	X59	Y59	Z59	X60	Y60	Z60	X61	Y61	Z61	X62	Y62	Z62	X63	Y63	Z63	X64	Y64	Z64	
48	0.783	1136.94211	894.6147600000002	-1009.69731	1206.76039	981.47168	-901.2695799999999	1179.5674	983.1353800000002	-1130.22992	1164.82353	1039.12769	-914.0629099999999	1141.93323	1040.50455	-1107.11015	1095.46421	843.7283100000001	-956.22924	1083.99037	844.4167400000001	-1052.72418	1078.71241	911.8828800000001	-1002.6409	1104.24169	994.2650000000001	-1004.3045999999999	1106.93804	1109.17544	-1003.7309099999999	1095.98053	1213.47258	-1001.3214099999999	1222.30743	1447.99773	-1023.3511699999999	1076.36028	1408.47037	-997.5350399999999	1081.81035	1317.48288	-998.5103199999999	1234.81391	1324.1377	-1025.58856	1073.95077	1464.80689	-996.2155499999999	1110.20808	1735.81883	-985.2580399999999	1139.17951	1626.64531	-927.2004499999999	1102.46325	1638.63546	-1066.66489	1066.14856	1625.44056	-983.1353799999999	1133.27049	1455.16887	-824.9112299999999	1059.32163	1456.43099	-1175.78104	1183.23903	1403.93821	-554.3582399999999	1240.83767	1384.89165	-571.2821499999999	965.35094	1369.51671	-1432.22121	1021.45799	1342.5532	-1441.97397	1258.79422	1337.10313	-316.62041999999997	1236.47762	1383.17057	-307.0397699999999	1220.35688	1372.61464	-570.5363499999999	905.22806	1281.62715	-1666.86109	877.2319	1325.45719	-1664.6237	1006.59937	1335.89838	-1434.51597	1292.29781	1350.1833	-150.5366899999999	1302.28005	1332.28412	-229.5913999999999	1275.66076	1355.11705	-289.6569099999999	874.59292	1280.25029	-1831.05164	907.29335	1262.179	-1758.42228	908.55547	1291.78149	-1695.48831	1151.16967	862.66014	-862.77487	1112.44548	485.2284000000001	-877.00243	1106.0775	482.87626000000006	-950.49233	1150.19439	482.7615200000001	-919.68509	1115.48605	862.3159200000001	-1155.07077	1088.69465	484.8268100000001	-1124.89459	1101.37323	483.96628000000004	-1052.20786	1136.13895	483.79417000000007	-1093.22681	1160.86506	450.46268000000003	-919.45561	1096.0379	85.88164000000006	-872.06868	1091.04678	83.87372000000006	-930.92944	1146.00644	450.3479500000001	-1095.46421	1067.41069	86.05375000000006	-1117.89555	1077.50766	85.07847000000007	-1059.66585	1060.52639	-0.05736999999994462	-904.36752	1212.4973	12.793320000000058	-957.434	1220.75846	7.056410000000054	-881.7067	1238.02658	11.244360000000057	-922.84039	1097.58687	4.130580000000056	-908.09651	1313.63914	15.948630000000056	-930.69997	1041.88141	0.11474000000006611	-1079.74506	1202.85929	11.588570000000066	-1086.22777	1182.26375	11.18699000000007	-1159.77504	1213.64469	12.85069000000007	-1127.87779	1077.73714	4.646900000000066	-1089.78466	1286.84774	18.071290000000072	-1148.35858	
49	0.8	1136.94211	894.6147600000002	-1009.75468	1206.76039	981.47168	-901.3269499999999	1179.51003	983.1927500000002	-1130.28729	1164.8809	1039.12769	-914.1776499999999	1141.87586	1040.50455	-1107.16752	1095.40684	843.7283100000001	-956.28661	1083.93301	844.4167400000001	-1052.78155	1078.71241	911.8828800000001	-1002.69827	1104.24169	994.2650000000001	-1004.3619699999999	1106.93804	1109.17544	-1003.7882799999999	1096.0379	1213.47258	-1001.3787799999999	1222.3648	1447.94036	-1023.4085399999999	1076.47501	1408.47037	-997.5924099999999	1081.86772	1317.54025	-998.5676899999999	1234.87128	1324.08033	-1025.64593	1074.06551	1464.80689	-996.2729199999999	1110.43756	1735.8762	-985.3727799999999	1139.35162	1626.64531	-927.2578199999999	1102.63535	1638.63546	-1066.72226	1066.32067	1625.49792	-983.2501199999999	1133.38523	1455.16887	-824.9685899999998	1059.379	1456.43099	-1175.89578	1183.35377	1403.99558	-554.4729799999999	1240.95241	1384.89165	-571.3968799999999	965.46568	1369.51671	-1432.27858	1021.57272	1342.5532	-1442.03133	1258.96633	1337.21787	-316.67778999999996	1236.64972	1383.22794	-307.15450999999996	1220.47162	1372.61464	-570.5937199999998	905.28543	1281.62715	-1666.91846	877.34664	1325.45719	-1664.73843	1006.65674	1335.89838	-1434.63071	1292.52729	1350.35541	-150.65142999999992	1302.45216	1332.39886	-229.70613999999992	1275.83286	1355.23179	-289.77164999999997	874.76503	1280.19292	-1831.10901	907.40808	1262.12163	-1758.47965	908.61284	1291.72412	-1695.54568	1151.16967	862.66014	-862.83224	1112.38811	485.2284000000001	-877.00243	1106.0775	482.87626000000006	-950.49233	1150.19439	482.7615200000001	-919.74246	1115.42868	862.3159200000001	-1155.12814	1088.69465	484.8268100000001	-1124.95196	1101.37323	483.96628000000004	-1052.20786	1136.13895	483.79417000000007	-1093.22681	1160.80769	450.46268000000003	-919.51298	1096.0379	85.88164000000006	-872.06868	1091.04678	83.87372000000006	-930.92944	1146.00644	450.3479500000001	-1095.46421	1067.41069	86.05375000000006	-1117.89555	1077.50766	85.07847000000007	-1059.66585	1060.52639	-0.05736999999994462	-904.36752	1212.4973	12.793320000000058	-957.434	1220.75846	7.056410000000054	-881.7067	1238.02658	11.244360000000057	-922.84039	1097.58687	4.130580000000056	-908.09651	1313.63914	15.948630000000056	-930.69997	1041.88141	0.11474000000006611	-1079.74506	1202.85929	11.645940000000065	-1086.22777	1182.26375	11.18699000000007	-1159.77504	1213.64469	12.85069000000007	-1127.82042	1077.73714	4.646900000000066	-1089.78466	1286.84774	18.071290000000072	-1148.35858	
50	0.817	1136.94211	894.6147600000002	-1009.81204	1206.76039	981.47168	-901.4416899999999	1179.45267	983.1927500000002	-1130.34466	1164.8809	1039.07032	-914.2350199999998	1141.87586	1040.50455	-1107.22489	1095.40684	843.7283100000001	-956.34398	1083.93301	844.4167400000001	-1052.83892	1078.65504	911.8828800000001	-1002.75564	1104.24169	994.2650000000001	-1004.4193399999999	1106.99541	1109.17544	-1003.8456499999999	1096.09527	1213.47258	-1001.4361499999999	1222.47954	1447.94036	-1023.5232699999999	1076.53238	1408.47037	-997.7071499999998	1081.92509	1317.54025	-998.6250599999998	1234.92865	1324.08033	-1025.7033	1074.18025	1464.80689	-996.3876599999999	1110.66704	1735.8762	-985.5448899999999	1139.52373	1626.70268	-927.3725499999999	1102.86483	1638.63546	-1066.83699	1066.49278	1625.49792	-983.3648599999999	1133.49996	1455.22624	-825.0259599999999	1059.49374	1456.43099	-1175.95315	1183.41114	1404.05295	-554.5303499999999	1241.06715	1384.94902	-571.4542499999999	965.52305	1369.51671	-1432.39331	1021.68746	1342.5532	-1442.0887	1259.08107	1337.27524	-316.79252999999994	1236.76446	1383.34268	-307.21187999999995	1220.58636	1372.67201	-570.6510899999998	905.34279	1281.62715	-1667.0332	877.46138	1325.51456	-1664.7958	1006.71411	1335.89838	-1434.68808	1292.6994	1350.47015	-150.7087999999999	1302.62426	1332.5136	-229.7635099999999	1275.9476	1355.28916	-289.82901999999996	874.87977	1280.19292	-1831.22375	907.46545	1262.12163	-1758.53702	908.72758	1291.72412	-1695.60304	1151.16967	862.66014	-862.88961	1112.38811	485.2284000000001	-877.0598	1106.0775	482.87626000000006	-950.5497	1150.19439	482.7615200000001	-919.74246	1115.37131	862.3159200000001	-1155.18551	1088.63728	484.8268100000001	-1124.95196	1101.31586	483.96628000000004	-1052.26523	1136.13895	483.79417000000007	-1093.28418	1160.80769	450.46268000000003	-919.51298	1096.0379	85.88164000000006	-872.06868	1091.04678	83.87372000000006	-930.92944	1146.00644	450.3479500000001	-1095.52158	1067.41069	86.05375000000006	-1117.89555	1077.50766	85.07847000000007	-1059.66585	1060.52639	-0.05736999999994462	-904.36752	1212.4973	12.793320000000058	-957.434	1220.75846	7.056410000000054	-881.7067	1238.02658	11.244360000000057	-922.84039	1097.58687	4.130580000000056	-908.09651	1313.63914	15.948630000000056	-930.69997	1041.88141	0.11474000000006611	-1079.74506	1202.85929	11.645940000000065	-1086.22777	1182.26375	11.18699000000007	-1159.77504	1213.64469	12.85069000000007	-1127.82042	1077.73714	4.646900000000066	-1089.78466	1286.84774	18.071290000000072	-1148.30121	
51	0.833	1136.94211	894.6147600000002	-1009.86941	1206.81776	981.47168	-901.4990599999999	1179.45267	983.1353800000002	-1130.40203	1164.93827	1039.07032	-914.2923799999999	1141.87586	1040.50455	-1107.28226	1095.40684	843.7283100000001	-956.34398	1083.87564	844.4167400000001	-1052.89629	1078.65504	911.8828800000001	-1002.81301	1104.24169	994.2650000000001	-1004.4767099999999	1106.99541	1109.17544	-1003.9030199999999	1096.15264	1213.47258	-1001.4935199999999	1222.59428	1447.94036	-1023.5806399999999	1076.64712	1408.47037	-997.7645199999998	1082.03982	1317.54025	-998.6824299999998	1235.04339	1324.08033	-1025.76067	1074.29499	1464.86426	-996.4450299999999	1110.95388	1735.8762	-985.6596299999999	1139.69583	1626.70268	-927.4872899999999	1103.03694	1638.63546	-1066.95173	1066.66489	1625.55529	-983.4795999999999	1133.6147	1455.22624	-825.1406999999999	1059.55111	1456.48836	-1176.01052	1183.52588	1404.11032	-554.5877199999999	1241.18189	1385.00638	-571.5689899999999	965.63779	1369.51671	-1432.45068	1021.74483	1342.49583	-1442.14607	1259.19581	1337.38998	-316.84989999999993	1236.93657	1383.45742	-307.32661999999993	1220.7011	1372.72938	-570.7658199999998	905.45753	1281.62715	-1667.09057	877.63349	1325.51456	-1664.91054	1006.82885	1335.84101	-1434.74545	1292.81414	1350.64225	-150.82353999999992	1302.739	1332.62834	-229.8208799999999	1276.11971	1355.4039	-289.94375999999994	875.05188	1280.19292	-1831.28112	907.63756	1262.12163	-1758.59439	908.84231	1291.72412	-1695.71778	1151.16967	862.66014	-862.94698	1112.33074	485.2284000000001	-877.0598	1106.02013	482.87626000000006	-950.5497	1150.13702	482.7615200000001	-919.74246	1115.37131	862.3159200000001	-1155.24288	1088.63728	484.8268100000001	-1125.00933	1101.25849	483.96628000000004	-1052.3226	1136.08158	483.79417000000007	-1093.34155	1160.80769	450.46268000000003	-919.51298	1096.0379	85.88164000000006	-872.06868	1091.04678	83.87372000000006	-930.92944	1145.94907	450.3479500000001	-1095.57895	1067.41069	86.05375000000006	-1117.95292	1077.50766	85.07847000000007	-1059.72322	1060.52639	-0.05736999999994462	-904.36752	1212.4973	12.793320000000058	-957.434	1220.75846	7.056410000000054	-881.7067	1238.02658	11.244360000000057	-922.84039	1097.58687	4.130580000000056	-908.09651	1313.63914	15.948630000000056	-930.69997	1041.88141	0.11474000000006611	-1079.74506	1202.85929	11.645940000000065	-1086.22777	1182.32112	11.18699000000007	-1159.77504	1213.70206	12.85069000000007	-1127.82042	1077.73714	4.646900000000066	-1089.78466	1286.84774	18.12866000000007	-1148.30121	
